# xmcd
#
# Track frame offsets: 
#        150
#        12646
#        30386
#        41603
#        70763
#        85235
#        97450
#        117260
#        147187
#        160232
#        182552
#        197042
#        209100
#        233313
#
# Disc length: 3387 seconds
#
# Revision: 1
# Processed by: cddbd v1.5.2PL0 Copyright (c) Steve Scherf et al.
# Submitted via: ExactAudioCopy v0.99pb5
#
DISCID=c10d390e
DTITLE=Mizia and Mizia - Love in Vain
DYEAR=1900
DGENRE=Blues
TTITLE0=Walk On
TTITLE1=It Hurts Me Too
TTITLE2=Rollin' and Tumblin'
TTITLE3=Mannish Boy (Hootchie Cootchie Man)
TTITLE4=Little Red Rooster
TTITLE5=Crossroads
TTITLE6=Love In Vain
TTITLE7=Help Me
TTITLE8=Rock Me
TTITLE9=Ain't Nobody's Business
TTITLE10=Long As I Can See The Light
TTITLE11=Got My Mojo Working
TTITLE12=The Thrill Is Gone
TTITLE13=Co sta³o siê kwiatom
EXTD=
EXTT0=
EXTT1=
EXTT2=
EXTT3=
EXTT4=
EXTT5=
EXTT6=
EXTT7=
EXTT8=
EXTT9=
EXTT10=
EXTT11=
EXTT12=
EXTT13=
PLAYORDER=
